# xmcd
#
# Track frame offsets: 
#        150
#        18525
#        40977
#        60513
#        78861
#        94185
#        112209
#        133203
#        153414
#        172599
#        193377
#        215532
#        239928
#        259437
#        277407
#        293136
#        313617
#        332181
#
# Disc length: 4712 seconds
#
# Revision: 0
# Processed by: cddbd v1.5.2PL0 Copyright (c) Steve Scherf et al.
# Submitted via: ExactAudioCopyFreeDBPlugin 1.0
#
DISCID=1f126612
DTITLE=周杰伦 - 七里香
DYEAR=2004
DGENRE=R&B
TTITLE0=我的地盘
TTITLE1=七里香
TTITLE2=借口
TTITLE3=外婆
TTITLE4=将军
TTITLE5=搁浅
TTITLE6=乱舞春秋
TTITLE7=困兽之斗
TTITLE8=游园会
TTITLE9=止战之殇
TTITLE10=断了的弦
TTITLE11=轨迹
TTITLE12=反方向的钟
TTITLE13=威廉古堡
TTITLE14=伊斯坦堡
TTITLE15=娘子
TTITLE16=完美主义
TTITLE17=黑色幽默
EXTD=
EXTT0=
EXTT1=
EXTT2=
EXTT3=
EXTT4=
EXTT5=
EXTT6=
EXTT7=
EXTT8=
EXTT9=
EXTT10=
EXTT11=
EXTT12=
EXTT13=
EXTT14=
EXTT15=
EXTT16=
EXTT17=
PLAYORDER=
